<svg width="5094" height="2089" viewBox="0 0 5094 2089" fill="none" xmlns="http://www.w3.org/2000/svg">
<g opacity="0.9">
<path d="M987.525 759.044C984.812 764.18 984.555 764.844 984.555 766.722C984.555 769.152 985.325 770.533 986.669 770.533C987.32 770.533 988.039 769.483 990.291 765.175C992.859 760.315 993.116 759.651 993.116 757.774C993.116 756.172 992.945 755.454 992.371 754.57C991.943 753.908 991.344 753.41 991.036 753.41C990.693 753.41 989.289 755.675 987.525 759.044Z" fill="#09090B"/>
<path d="M715.728 1671.2C625.548 1671.2 542.217 1656.36 465.736 1626.68C389.255 1595.86 323.047 1553.05 267.113 1498.26C211.179 1443.46 167.23 1378.97 135.268 1304.77C104.448 1230.57 89.0371 1149.52 89.0371 1061.62C89.0371 973.722 104.448 892.679 135.268 818.477C167.23 744.277 211.179 679.781 267.113 624.988C324.189 570.194 390.967 527.958 467.449 498.278C543.93 467.457 627.261 452.046 717.44 452.046C804.195 452.046 885.816 466.886 962.294 496.566C1038.77 525.104 1103.27 568.482 1155.78 626.7L1075.3 707.178C1026.22 656.95 971.994 620.992 912.638 599.303C853.28 576.472 789.355 565.057 720.864 565.057C648.949 565.057 582.171 577.615 520.529 602.728C458.887 626.7 405.236 661.517 359.576 707.178C313.915 751.698 277.958 804.208 251.703 864.709C226.59 924.066 214.033 989.707 214.033 1061.62C214.033 1133.54 226.59 1199.75 251.703 1260.25C277.958 1319.61 313.915 1372.12 359.576 1417.78C405.236 1462.3 458.887 1497.12 520.529 1522.23C582.171 1546.2 648.949 1558.19 720.864 1558.19C789.355 1558.19 853.28 1546.78 912.638 1523.94C971.994 1501.11 1026.22 1464.59 1075.3 1414.36L1155.78 1494.83C1103.27 1553.05 1038.77 1597 962.294 1626.68C885.816 1656.36 803.624 1671.2 715.728 1671.2Z" fill="#09090B"/>
<path d="M711.903 625.784C710.574 626.621 710.513 626.9 710.634 633.591C710.695 640.002 710.815 640.56 711.963 641.303C713.655 642.419 716.434 642.371 717.944 641.21C719.033 640.374 719.153 639.677 719.153 633.358C719.153 626.667 719.093 626.343 717.825 625.692C716.011 624.716 713.534 624.763 711.903 625.784Z" fill="#09090B"/>
<path d="M386.785 754.681C385.712 755.62 385.26 756.503 385.26 757.829C385.26 759.376 385.994 760.37 390.91 765.065C395.658 769.649 396.844 770.533 398.314 770.533C400.687 770.533 402.382 768.821 402.382 766.501C402.382 764.899 401.591 763.905 396.505 759.044C392.889 755.509 390.232 753.41 389.498 753.41C388.876 753.41 387.633 754.018 386.785 754.681Z" fill="#09090B"/>
<path d="M249.997 1080.08C247.842 1081.86 247.702 1084.56 249.649 1086.16C250.9 1087.2 251.943 1087.31 261.12 1087.31C270.296 1087.31 271.338 1087.2 272.59 1086.16C274.467 1084.61 274.397 1081.52 272.521 1080.08C271.269 1079.17 269.739 1078.99 261.398 1078.82C251.873 1078.65 251.735 1078.65 249.997 1080.08Z" fill="#09090B"/>
<path d="M1090.67 1079.11C1087.09 1080.39 1086.13 1084.34 1088.88 1086.26C1090.26 1087.19 1091.77 1087.31 1100.24 1087.31C1109.6 1087.31 1110.15 1087.25 1111.53 1085.97C1113.39 1084.28 1113.45 1082.08 1111.73 1080.27C1110.49 1078.93 1109.94 1078.87 1101.2 1078.76C1096.18 1078.7 1091.43 1078.81 1090.67 1079.11Z" fill="#09090B"/>
<path d="M397.014 1353C396.392 1353.23 393.51 1355.86 390.571 1358.78C386.164 1363.22 385.26 1364.45 385.26 1365.86C385.26 1368.27 386.842 1369.84 389.328 1369.84C391.081 1369.84 391.928 1369.22 396.844 1364.34C401.761 1359.46 402.382 1358.62 402.382 1356.87C402.382 1353.9 399.613 1351.94 397.014 1353Z" fill="#09090B"/>
<path d="M985.325 1353.63C984.752 1354.53 984.555 1355.31 984.555 1356.81C984.555 1358.6 984.871 1359.44 987.32 1364.31C989.632 1368.95 990.231 1369.84 990.976 1369.84C992.346 1369.84 993.116 1368.44 993.116 1366.03C993.116 1364.13 992.859 1363.47 990.351 1358.55C988.81 1355.59 987.234 1352.96 986.841 1352.79C986.327 1352.57 985.865 1352.79 985.325 1353.63Z" fill="#09090B"/>
<path d="M712.241 1464.95C710.725 1465.95 710.664 1466.17 710.604 1472.32C710.543 1475.8 710.725 1478.97 710.907 1479.37C711.331 1480.14 713.756 1481.13 715.151 1481.13C715.575 1481.13 716.667 1480.72 717.576 1480.18L719.153 1479.28V1472.55V1465.81L717.576 1464.9C715.515 1463.69 714.12 1463.73 712.241 1464.95Z" fill="#09090B"/>
<path d="M684.908 1116.78L708.258 684.918L736.276 1116.78L708.258 1164.36L684.908 1116.78Z" fill="#09090B" stroke="#09090B" stroke-width="0.5"/>
<path d="M676.935 1061.62L993.117 1081.08L676.935 1104.43L642.102 1081.08L676.935 1061.62Z" fill="#09090B" stroke="#09090B" stroke-width="0.5"/>
<path d="M710.592 1130.11C686.95 1130.11 667.785 1110.95 667.785 1087.31C667.785 1063.67 686.95 1044.5 710.592 1044.5C734.233 1044.5 753.398 1063.67 753.398 1087.31C753.398 1110.95 734.233 1130.11 710.592 1130.11Z" fill="#09090B"/>
<path fill-rule="evenodd" clip-rule="evenodd" d="M1829.04 884.708C1793.98 866.447 1753.06 857.312 1706.31 857.312C1650.79 857.312 1602.93 869.366 1562.75 893.475C1532.39 911.146 1508.28 934.031 1490.43 962.13V624.987H1412.62V1069.98H1497.56C1501.55 1053.25 1507.21 1037.88 1514.54 1023.88C1531.34 992.472 1554.71 968.722 1584.67 952.652C1615.35 935.846 1651.15 927.447 1692.06 927.447C1746.86 927.447 1789.23 943.157 1819.18 974.569C1842.41 997.797 1856.84 1029.59 1862.49 1069.98H1941.64C1938.24 1029.35 1928.47 994.62 1912.33 965.803C1892.6 929.271 1864.84 902.242 1829.04 884.708ZM1942.69 1087.1H1864.32C1864.91 1094.96 1865.21 1103.11 1865.21 1111.55V1438.12H1943.01V1103.88C1943.01 1098.19 1942.9 1092.6 1942.69 1087.1ZM1494.14 1087.1H1412.62V1438.12H1490.43V1135.66C1490.43 1118.46 1491.67 1102.27 1494.14 1087.1ZM2153.18 1087.1H2235.69C2232.55 1104.77 2230.98 1123.88 2230.98 1144.43V1438.12H2153.18V1087.1ZM2239.34 1069.98H2153.18V862.791H2227.7V973.73C2244.16 938.868 2268.63 911.745 2301.12 892.379C2339.1 868.998 2386.23 857.312 2442.48 857.312V932.926H2433.72C2430.8 932.199 2427.87 931.831 2424.95 931.831C2364.31 931.831 2316.83 950.46 2282.49 987.72C2261.98 1009.53 2247.6 1036.96 2239.34 1069.98ZM2526.56 1087.1C2522.87 1107.03 2521.02 1127.97 2521.02 1149.91C2521.02 1206.89 2533.81 1257.67 2559.38 1302.23C2584.95 1346.07 2619.65 1380.77 2663.48 1406.34C2708.05 1431.18 2758.1 1443.6 2813.62 1443.6C2869.87 1443.6 2920.28 1431.18 2964.84 1406.34C3009.41 1380.77 3044.11 1346.07 3068.95 1302.23C3094.52 1257.67 3107.31 1206.89 3107.31 1149.91C3107.31 1127.97 3105.46 1107.03 3101.77 1087.1H3021.46C3026.09 1106.61 3028.4 1127.55 3028.4 1149.91C3028.4 1194.47 3018.91 1233.92 2999.91 1268.26C2981.65 1301.87 2956.45 1328.17 2924.3 1347.16C2892.15 1365.43 2855.26 1374.56 2813.62 1374.56C2773.44 1374.56 2737.28 1365.43 2705.13 1347.16C2672.98 1328.17 2647.42 1301.87 2628.42 1268.26C2609.42 1233.92 2599.93 1194.47 2599.93 1149.91C2599.93 1127.55 2602.24 1106.61 2606.87 1087.1H2526.56ZM2611.65 1069.98H2530.25C2536.65 1044.05 2546.35 1019.91 2559.38 997.583C2584.95 953.748 2619.65 919.408 2663.48 894.571C2707.32 869.734 2757.36 857.312 2813.62 857.312C2870.6 857.312 2921.01 869.734 2964.84 894.571C3009.41 919.408 3044.11 953.748 3068.95 997.583C3081.98 1019.91 3091.68 1044.05 3098.08 1069.98H3016.68C3012.32 1056.42 3006.73 1043.61 2999.91 1031.55C2981.65 997.951 2956.45 972.01 2924.3 953.748C2892.15 934.75 2855.63 925.255 2814.71 925.255C2773.8 925.255 2737.28 934.75 2705.13 953.748C2672.98 972.01 2647.42 997.951 2628.42 1031.55C2621.6 1043.61 2616.01 1056.42 2611.65 1069.98ZM3266.15 1087.1V1438.12H3343.96V1135.66C3343.96 1118.46 3345.19 1102.27 3347.67 1087.1H3266.15ZM3351.09 1069.98H3266.15V862.791H3340.67V967.489C3358.8 936.925 3384.01 912.251 3416.28 893.475C3456.46 869.366 3504.32 857.312 3559.84 857.312C3606.59 857.312 3647.51 866.447 3682.58 884.708C3718.37 902.242 3746.14 929.271 3765.86 965.803C3782 994.62 3791.77 1029.35 3795.17 1069.98H3716.02C3710.37 1029.59 3695.94 997.797 3672.71 974.569C3642.76 943.157 3600.39 927.447 3545.59 927.447C3504.68 927.447 3468.89 935.846 3438.2 952.652C3408.24 968.722 3384.87 992.472 3368.07 1023.88C3360.74 1037.88 3355.08 1053.25 3351.09 1069.98ZM3717.85 1087.1C3718.44 1094.96 3718.74 1103.11 3718.74 1111.55V1438.12H3796.54V1103.88C3796.54 1098.19 3796.43 1092.6 3796.22 1087.1H3717.85ZM3954.17 1087.1C3950.48 1107.03 3948.63 1127.97 3948.63 1149.91C3948.63 1206.89 3961.41 1257.67 3986.98 1302.23C4012.56 1346.07 4047.26 1380.77 4091.09 1406.34C4135.65 1431.18 4185.7 1443.6 4241.22 1443.6C4297.48 1443.6 4347.89 1431.18 4392.45 1406.34C4437.01 1380.77 4471.72 1346.07 4496.55 1302.23C4522.13 1257.67 4534.91 1206.89 4534.91 1149.91C4534.91 1127.97 4533.06 1107.03 4529.37 1087.1H4449.06C4453.7 1106.61 4456.01 1127.55 4456.01 1149.91C4456.01 1194.47 4446.51 1233.92 4427.52 1268.26C4409.25 1301.87 4384.05 1328.17 4351.9 1347.16C4319.75 1365.43 4282.86 1374.56 4241.22 1374.56C4201.04 1374.56 4164.88 1365.43 4132.73 1347.16C4100.58 1328.17 4075.02 1301.87 4056.02 1268.26C4037.02 1233.92 4027.53 1194.47 4027.53 1149.91C4027.53 1127.55 4029.84 1106.61 4034.47 1087.1H3954.17ZM4444.29 1069.98C4439.92 1056.42 4434.33 1043.61 4427.52 1031.55C4409.25 997.951 4384.05 972.01 4351.9 953.748C4319.75 934.75 4283.23 925.255 4242.32 925.255C4201.4 925.255 4164.88 934.75 4132.73 953.748C4100.58 972.01 4075.02 997.951 4056.02 1031.55C4049.21 1043.61 4043.62 1056.42 4039.25 1069.98H3957.86C3964.25 1044.05 3973.95 1019.91 3986.98 997.583C4012.56 953.748 4047.26 919.408 4091.09 894.571C4134.92 869.734 4184.96 857.312 4241.22 857.312C4298.21 857.312 4348.61 869.734 4392.45 894.571C4437.01 919.408 4471.72 953.748 4496.55 997.583C4509.58 1019.91 4519.28 1044.05 4525.68 1069.98H4444.29ZM4646.8 1087.1C4649.01 1091.9 4651.51 1096.39 4654.31 1100.59C4668.18 1120.32 4686.09 1136.03 4708 1147.72C4729.92 1158.68 4754.03 1167.07 4780.33 1172.92C4807.36 1178.77 4834.39 1183.88 4861.42 1188.26C4888.45 1192.65 4912.93 1198.13 4934.84 1204.7C4956.76 1210.55 4974.29 1219.68 4987.45 1232.1C5001.32 1243.79 5008.27 1260.22 5008.27 1281.41C5008.27 1309.91 4996.21 1332.92 4972.1 1350.45C4947.99 1367.26 4908.54 1375.66 4853.75 1375.66C4813.57 1375.66 4775.22 1369.45 4738.69 1357.03C4702.16 1343.88 4672.21 1328.54 4648.83 1311L4613.76 1372.37C4637.87 1392.82 4671.11 1410 4713.48 1423.88C4755.85 1437.03 4800.78 1443.6 4848.27 1443.6C4898.68 1443.6 4941.42 1437.03 4976.49 1423.88C5012.28 1410 5039.32 1391 5057.58 1366.89C5076.58 1342.05 5086.07 1312.82 5086.07 1279.22C5086.07 1247.81 5079.13 1222.6 5065.25 1203.61C5052.1 1183.88 5034.2 1168.91 5011.55 1158.68C4989.64 1147.72 4965.16 1139.32 4938.13 1133.47C4911.83 1126.9 4885.16 1121.42 4858.13 1117.03C4831.83 1112.65 4807.36 1107.17 4784.71 1100.59C4773.3 1096.79 4762.98 1092.29 4753.75 1087.1H4646.8ZM4729.95 1069.98H4640.55C4636.57 1055.87 4634.58 1039.77 4634.58 1021.69C4634.58 990.28 4643.35 962.147 4660.88 937.31C4678.41 912.473 4703.99 893.107 4737.59 879.229C4771.93 864.614 4813.57 857.312 4862.52 857.312C4899.78 857.312 4937.04 862.423 4974.29 872.654C5011.55 882.148 5042.24 894.939 5066.35 911.009L5032.38 973.474C5006.8 955.94 4979.41 943.517 4950.19 936.214C4920.97 928.175 4891.74 924.16 4862.52 924.16C4810.64 924.16 4772.29 933.295 4747.45 951.556C4723.34 969.09 4711.29 991.735 4711.29 1019.5C4711.29 1040.82 4717.51 1057.64 4729.95 1069.98Z" fill="#09090B"/>
</g>
</svg>
