<svg width="1128" height="463" viewBox="0 0 1128 463" fill="none" xmlns="http://www.w3.org/2000/svg">
<g opacity="0.9">
<path d="M218.675 168.233C218.074 169.371 218.018 169.518 218.018 169.934C218.018 170.473 218.188 170.779 218.486 170.779C218.63 170.779 218.789 170.546 219.288 169.591C219.856 168.514 219.913 168.367 219.913 167.951C219.913 167.596 219.875 167.437 219.748 167.241C219.654 167.094 219.521 166.984 219.453 166.984C219.377 166.984 219.066 167.486 218.675 168.233Z" fill="#FAFAFA"/>
<path d="M158.489 370.4C138.52 370.4 120.068 367.111 103.132 360.533C86.1962 353.702 71.5352 344.214 59.1494 332.07C46.7635 319.925 37.0316 305.631 29.954 289.186C23.1293 272.74 19.7168 254.777 19.7168 235.295C19.7168 215.813 23.1293 197.851 29.954 181.405C37.0316 164.96 46.7635 150.665 59.1494 138.521C71.7881 126.376 86.5752 117.015 103.511 110.437C120.447 103.606 138.899 100.19 158.868 100.19C178.079 100.19 196.153 103.48 213.088 110.058C230.023 116.383 244.305 125.997 255.933 138.9L238.112 156.737C227.244 145.605 215.236 137.635 202.092 132.828C188.948 127.768 174.793 125.238 159.627 125.238C143.702 125.238 128.915 128.021 115.265 133.587C101.615 138.9 89.7349 146.617 79.6241 156.737C69.5131 166.604 61.5509 178.243 55.737 191.652C50.1761 204.808 47.3955 219.356 47.3955 235.295C47.3955 251.235 50.1761 265.909 55.737 279.318C61.5509 292.475 69.5131 304.113 79.6241 314.233C89.7349 324.1 101.615 331.818 115.265 337.383C128.915 342.696 143.702 345.353 159.627 345.353C174.793 345.353 188.948 342.824 202.092 337.762C215.236 332.702 227.244 324.608 238.112 313.475L255.933 331.31C244.305 344.214 230.023 353.955 213.088 360.533C196.153 367.111 177.953 370.4 158.489 370.4Z" fill="#FAFAFA"/>
<path d="M157.642 138.697C157.348 138.883 157.334 138.945 157.361 140.428C157.374 141.849 157.401 141.972 157.655 142.137C158.03 142.384 158.645 142.374 158.98 142.116C159.221 141.931 159.247 141.777 159.247 140.376C159.247 138.893 159.234 138.821 158.953 138.677C158.552 138.461 158.003 138.471 157.642 138.697Z" fill="#FAFAFA"/>
<path d="M85.6492 167.266C85.4116 167.474 85.3115 167.669 85.3115 167.963C85.3115 168.306 85.4741 168.526 86.5626 169.567C87.6138 170.583 87.8767 170.779 88.2022 170.779C88.7276 170.779 89.103 170.4 89.103 169.885C89.103 169.53 88.9278 169.31 87.8016 168.233C87.0009 167.449 86.4125 166.984 86.25 166.984C86.1122 166.984 85.837 167.119 85.6492 167.266Z" fill="#FAFAFA"/>
<path d="M55.3589 239.386C54.8817 239.78 54.8507 240.379 55.2818 240.734C55.5588 240.964 55.7898 240.988 57.8219 240.988C59.8538 240.988 60.0846 240.964 60.3618 240.734C60.7774 240.39 60.7619 239.705 60.3465 239.386C60.0693 239.184 59.7305 239.144 57.8835 239.107C55.7743 239.069 55.7437 239.069 55.3589 239.386Z" fill="#FAFAFA"/>
<path d="M241.515 239.171C240.722 239.455 240.51 240.33 241.119 240.756C241.424 240.962 241.758 240.988 243.634 240.988C245.707 240.988 245.829 240.975 246.134 240.691C246.546 240.317 246.559 239.829 246.178 239.428C245.904 239.131 245.782 239.118 243.847 239.093C242.735 239.08 241.683 239.104 241.515 239.171Z" fill="#FAFAFA"/>
<path d="M87.9143 299.875C87.7766 299.926 87.1384 300.509 86.4876 301.156C85.5117 302.14 85.3115 302.413 85.3115 302.725C85.3115 303.259 85.6618 303.607 86.2123 303.607C86.6005 303.607 86.7881 303.47 87.8767 302.388C88.9655 301.307 89.103 301.121 89.103 300.733C89.103 300.075 88.4898 299.64 87.9143 299.875Z" fill="#FAFAFA"/>
<path d="M218.188 300.015C218.061 300.214 218.018 300.387 218.018 300.72C218.018 301.116 218.088 301.303 218.63 302.382C219.142 303.41 219.274 303.608 219.439 303.608C219.743 303.608 219.913 303.297 219.913 302.763C219.913 302.342 219.856 302.196 219.301 301.105C218.96 300.449 218.611 299.866 218.524 299.829C218.41 299.78 218.308 299.829 218.188 300.015Z" fill="#FAFAFA"/>
<path d="M157.717 324.688C157.381 324.909 157.368 324.958 157.354 326.321C157.341 327.092 157.381 327.795 157.421 327.884C157.515 328.054 158.052 328.274 158.361 328.274C158.455 328.274 158.697 328.183 158.898 328.063L159.247 327.864V326.372V324.878L158.898 324.676C158.442 324.408 158.133 324.417 157.717 324.688Z" fill="#FAFAFA"/>
<path d="M151.664 247.52L156.835 151.804L163.039 247.52L156.835 258.066L151.664 247.52Z" fill="#FAFAFA" stroke="#FAFAFA" stroke-width="0.5"/>
<path d="M149.899 235.295L219.913 239.608L149.899 244.783L142.186 239.608L149.899 235.295Z" fill="#FAFAFA" stroke="#FAFAFA" stroke-width="0.5"/>
<path d="M157.352 250.474C152.117 250.474 147.873 246.228 147.873 240.988C147.873 235.749 152.117 231.5 157.352 231.5C162.587 231.5 166.831 235.749 166.831 240.988C166.831 246.228 162.587 250.474 157.352 250.474Z" fill="#FAFAFA"/>
<path fill-rule="evenodd" clip-rule="evenodd" d="M405.02 196.084C397.254 192.037 388.193 190.012 377.84 190.012C365.546 190.012 354.948 192.684 346.051 198.027C339.328 201.944 333.989 207.016 330.037 213.244V138.521H312.807V237.147H331.616C332.499 233.439 333.752 230.033 335.376 226.93C339.096 219.969 344.271 214.705 350.905 211.143C357.699 207.418 365.626 205.557 374.685 205.557C386.82 205.557 396.202 209.039 402.834 216.001C407.978 221.149 411.173 228.196 412.425 237.147H429.951C429.198 228.142 427.035 220.445 423.461 214.058C419.094 205.961 412.945 199.971 405.02 196.084ZM430.184 240.942H412.83C412.96 242.684 413.027 244.49 413.027 246.361V318.741H430.255V244.661C430.255 243.4 430.23 242.161 430.184 240.942ZM330.858 240.942H312.807V318.741H330.037V251.705C330.037 247.892 330.311 244.304 330.858 240.942ZM476.794 240.942H495.065C494.369 244.858 494.022 249.094 494.022 253.648V318.741H476.794V240.942ZM495.873 237.147H476.794V191.227H493.296V215.815C496.94 208.088 502.359 202.077 509.553 197.785C517.966 192.602 528.4 190.012 540.856 190.012V206.771H538.916C538.269 206.61 537.621 206.529 536.974 206.529C523.546 206.529 513.032 210.657 505.428 218.916C500.886 223.75 497.702 229.829 495.873 237.147ZM559.474 240.942C558.657 245.359 558.25 250 558.25 254.863C558.25 267.492 561.08 278.747 566.742 288.623C572.404 298.339 580.088 306.03 589.796 311.697C599.663 317.203 610.746 319.956 623.04 319.956C635.496 319.956 646.658 317.203 656.528 311.697C666.395 306.03 674.079 298.339 679.579 288.623C685.242 278.747 688.074 267.492 688.074 254.863C688.074 250 687.664 245.359 686.847 240.942H669.063C670.089 245.266 670.6 249.907 670.6 254.863C670.6 264.739 668.499 273.483 664.291 281.094C660.248 288.543 654.668 294.372 647.549 298.581C640.429 302.63 632.261 304.654 623.04 304.654C614.143 304.654 606.135 302.63 599.016 298.581C591.897 294.372 586.237 288.543 582.03 281.094C577.822 273.483 575.721 264.739 575.721 254.863C575.721 249.907 576.233 245.266 577.258 240.942H559.474ZM578.316 237.147H560.291C561.708 231.4 563.856 226.05 566.742 221.102C572.404 211.386 580.088 203.775 589.796 198.27C599.501 192.766 610.582 190.012 623.04 190.012C635.657 190.012 646.82 192.766 656.528 198.27C666.395 203.775 674.079 211.386 679.579 221.102C682.465 226.05 684.613 231.4 686.03 237.147H668.005C667.039 234.142 665.802 231.303 664.291 228.63C660.248 221.183 654.668 215.434 647.549 211.386C640.429 207.175 632.342 205.071 623.281 205.071C614.222 205.071 606.135 207.175 599.016 211.386C591.897 215.434 586.237 221.183 582.03 228.63C580.52 231.303 579.282 234.142 578.316 237.147ZM723.247 240.942V318.741H740.477V251.705C740.477 247.892 740.749 244.304 741.298 240.942H723.247ZM742.056 237.147H723.247V191.227H739.748V214.432C743.763 207.658 749.345 202.189 756.493 198.027C765.388 192.684 775.986 190.012 788.281 190.012C798.633 190.012 807.694 192.037 815.46 196.084C823.385 199.971 829.534 205.961 833.901 214.058C837.475 220.445 839.638 228.142 840.394 237.147H822.865C821.616 228.196 818.418 221.149 813.274 216.001C806.642 209.039 797.26 205.557 785.127 205.557C776.066 205.557 768.141 207.418 761.345 211.143C754.713 214.705 749.536 219.969 745.816 226.93C744.193 230.033 742.939 233.439 742.056 237.147ZM823.27 240.942C823.401 242.684 823.467 244.49 823.467 246.361V318.741H840.697V244.661C840.697 243.4 840.67 242.161 840.624 240.942H823.27ZM875.6 240.942C874.783 245.359 874.373 250 874.373 254.863C874.373 267.492 877.203 278.747 882.865 288.623C888.53 298.339 896.214 306.03 905.919 311.697C915.786 317.203 926.869 319.956 939.163 319.956C951.621 319.956 962.784 317.203 972.651 311.697C982.519 306.03 990.205 298.339 995.705 288.623C1001.37 278.747 1004.2 267.492 1004.2 254.863C1004.2 250 1003.79 245.359 1002.97 240.942H985.189C986.214 245.266 986.726 249.907 986.726 254.863C986.726 264.739 984.622 273.483 980.417 281.094C976.374 288.543 970.791 294.372 963.672 298.581C956.555 302.63 948.384 304.654 939.163 304.654C930.266 304.654 922.259 302.63 915.14 298.581C908.02 294.372 902.361 288.543 898.153 281.094C893.948 273.483 891.845 264.739 891.845 254.863C891.845 249.907 892.356 245.266 893.381 240.942H875.6ZM984.131 237.147C983.163 234.142 981.925 231.303 980.417 228.63C976.374 221.183 970.791 215.434 963.672 211.386C956.555 207.175 948.466 205.071 939.407 205.071C930.346 205.071 922.259 207.175 915.14 211.386C908.02 215.434 902.361 221.183 898.153 228.63C896.645 231.303 895.407 234.142 894.44 237.147H876.417C877.832 231.4 879.98 226.05 882.865 221.102C888.53 211.386 896.214 203.775 905.919 198.27C915.625 192.766 926.708 190.012 939.163 190.012C951.783 190.012 962.946 192.766 972.651 198.27C982.519 203.775 990.205 211.386 995.705 221.102C998.588 226.05 1000.74 231.4 1002.15 237.147H984.131ZM1028.97 240.942C1029.46 242.006 1030.02 243.001 1030.64 243.932C1033.71 248.305 1037.67 251.787 1042.53 254.378C1047.38 256.807 1052.72 258.666 1058.54 259.963C1064.53 261.259 1070.51 262.392 1076.5 263.363C1082.48 264.336 1087.9 265.55 1092.76 267.006C1097.61 268.303 1101.49 270.327 1104.41 273.079C1107.48 275.67 1109.02 279.312 1109.02 284.008C1109.02 290.325 1106.35 295.425 1101.01 299.31C1095.67 303.036 1086.93 304.898 1074.8 304.898C1065.9 304.898 1057.41 303.521 1049.32 300.768C1041.23 297.854 1034.6 294.454 1029.42 290.566L1021.66 304.168C1027 308.701 1034.36 312.509 1043.74 315.585C1053.12 318.499 1063.07 319.956 1073.59 319.956C1084.75 319.956 1094.21 318.499 1101.98 315.585C1109.9 312.509 1115.89 308.297 1119.94 302.954C1124.14 297.448 1126.24 290.97 1126.24 283.523C1126.24 276.561 1124.71 270.974 1121.63 266.765C1118.72 262.392 1114.76 259.074 1109.74 256.807C1104.89 254.378 1099.47 252.516 1093.48 251.219C1087.66 249.763 1081.76 248.549 1075.77 247.576C1069.95 246.605 1064.53 245.39 1059.51 243.932C1056.99 243.09 1054.7 242.092 1052.66 240.942H1028.97ZM1047.39 237.147H1027.59C1026.71 234.02 1026.27 230.452 1026.27 226.445C1026.27 219.483 1028.21 213.248 1032.09 207.743C1035.98 202.238 1041.64 197.946 1049.08 194.87C1056.68 191.631 1065.9 190.012 1076.74 190.012C1084.99 190.012 1093.24 191.145 1101.49 193.413C1109.74 195.517 1116.54 198.352 1121.88 201.914L1114.36 215.758C1108.69 211.872 1102.63 209.119 1096.16 207.5C1089.69 205.718 1083.21 204.828 1076.74 204.828C1065.26 204.828 1056.76 206.853 1051.26 210.9C1045.92 214.787 1043.25 219.805 1043.25 225.959C1043.25 230.685 1044.63 234.412 1047.39 237.147Z" fill="#FAFAFA"/>
</g>
</svg>
