<svg width="118" height="48" viewBox="0 0 118 48" fill="none" xmlns="http://www.w3.org/2000/svg">
<g opacity="0.9">
<path d="M22.6908 17.441C22.6285 17.559 22.6226 17.5742 22.6226 17.6174C22.6226 17.6732 22.6403 17.705 22.6711 17.705C22.6861 17.705 22.7026 17.6808 22.7544 17.5819C22.8134 17.4702 22.8193 17.4549 22.8193 17.4118C22.8193 17.375 22.8153 17.3585 22.8022 17.3382C22.7923 17.323 22.7786 17.3115 22.7715 17.3115C22.7636 17.3115 22.7313 17.3636 22.6908 17.441Z" fill="#FAFAFA"/>
<path d="M16.4457 38.3998C14.3736 38.3998 12.4588 38.0588 10.7015 37.3769C8.94416 36.6687 7.42286 35.685 6.13764 34.4261C4.85241 33.1669 3.84258 31.6851 3.10817 29.9802C2.4 28.2753 2.0459 26.4129 2.0459 24.3932C2.0459 22.3735 2.4 20.5114 3.10817 18.8064C3.84258 17.1015 4.85241 15.6195 6.13764 14.3605C7.4491 13.1015 8.98349 12.131 10.7409 11.449C12.4982 10.7408 14.4129 10.3867 16.485 10.3867C18.4784 10.3867 20.3539 10.7277 22.1112 11.4097C23.8684 12.0654 25.3504 13.0621 26.557 14.3998L24.7077 16.249C23.58 15.0949 22.334 14.2687 20.9702 13.7703C19.6063 13.2457 18.1375 12.9834 16.5637 12.9834C14.9113 12.9834 13.3769 13.272 11.9605 13.849C10.5441 14.3998 9.31136 15.1998 8.26221 16.249C7.21303 17.272 6.38683 18.4785 5.78355 19.8687C5.20652 21.2326 4.91799 22.7408 4.91799 24.3932C4.91799 26.0457 5.20652 27.5671 5.78355 28.9572C6.38683 30.3212 7.21303 31.5277 8.26221 32.5769C9.31136 33.5998 10.5441 34.3999 11.9605 34.9769C13.3769 35.5276 14.9113 35.8031 16.5637 35.8031C18.1375 35.8031 19.6063 35.541 20.9702 35.0162C22.334 34.4916 23.58 33.6524 24.7077 32.4983L26.557 34.3473C25.3504 35.685 23.8684 36.6949 22.1112 37.3769C20.3539 38.0588 18.4653 38.3998 16.4457 38.3998Z" fill="#FAFAFA"/>
<path d="M16.3578 14.3786C16.3272 14.3979 16.3258 14.4043 16.3286 14.558C16.33 14.7053 16.3328 14.7182 16.3591 14.7352C16.398 14.7609 16.4619 14.7598 16.4966 14.7331C16.5216 14.7139 16.5244 14.6979 16.5244 14.5527C16.5244 14.3989 16.523 14.3915 16.4938 14.3765C16.4522 14.3541 16.3952 14.3552 16.3578 14.3786Z" fill="#FAFAFA"/>
<path d="M8.88758 17.3407C8.86293 17.3623 8.85254 17.3826 8.85254 17.4131C8.85254 17.4486 8.86941 17.4714 8.98236 17.5793C9.09144 17.6847 9.11871 17.705 9.15249 17.705C9.20701 17.705 9.24596 17.6656 9.24596 17.6123C9.24596 17.5755 9.22779 17.5527 9.11092 17.441C9.02784 17.3598 8.96678 17.3115 8.94992 17.3115C8.93563 17.3115 8.90707 17.3255 8.88758 17.3407Z" fill="#FAFAFA"/>
<path d="M5.74455 24.8178C5.69503 24.8587 5.69181 24.9207 5.73655 24.9575C5.7653 24.9814 5.78926 24.9839 6.00013 24.9839C6.21097 24.9839 6.23491 24.9814 6.26368 24.9575C6.30681 24.9219 6.3052 24.8509 6.26209 24.8178C6.23332 24.7969 6.19817 24.7928 6.00651 24.7889C5.78765 24.7849 5.78448 24.7849 5.74455 24.8178Z" fill="#FAFAFA"/>
<path d="M25.061 24.7955C24.9788 24.8249 24.9567 24.9157 25.0199 24.9598C25.0516 24.9812 25.0863 24.9839 25.2809 24.9839C25.496 24.9839 25.5087 24.9825 25.5404 24.9531C25.5831 24.9143 25.5845 24.8638 25.545 24.8222C25.5165 24.7914 25.5038 24.79 25.303 24.7875C25.1877 24.7861 25.0785 24.7886 25.061 24.7955Z" fill="#FAFAFA"/>
<path d="M9.12262 31.0887C9.10833 31.094 9.0421 31.1544 8.97457 31.2215C8.87331 31.3235 8.85254 31.3518 8.85254 31.3842C8.85254 31.4396 8.88889 31.4757 8.94601 31.4757C8.98629 31.4757 9.00575 31.4614 9.11871 31.3493C9.23169 31.2372 9.24596 31.2179 9.24596 31.1776C9.24596 31.1094 9.18234 31.0644 9.12262 31.0887Z" fill="#FAFAFA"/>
<path d="M22.6403 31.1032C22.6271 31.1238 22.6226 31.1418 22.6226 31.1762C22.6226 31.2174 22.6298 31.2367 22.6861 31.3486C22.7392 31.4552 22.753 31.4756 22.7701 31.4756C22.8016 31.4756 22.8193 31.4435 22.8193 31.3881C22.8193 31.3444 22.8134 31.3293 22.7557 31.2162C22.7203 31.1482 22.6841 31.0878 22.6751 31.0839C22.6633 31.0788 22.6527 31.0839 22.6403 31.1032Z" fill="#FAFAFA"/>
<path d="M16.3655 33.6612C16.3307 33.6841 16.3293 33.6892 16.3279 33.8305C16.3265 33.9105 16.3307 33.9833 16.3349 33.9925C16.3446 34.0102 16.4003 34.0329 16.4324 34.0329C16.4421 34.0329 16.4672 34.0235 16.4881 34.0111L16.5243 33.9904V33.8358V33.6809L16.4881 33.66C16.4408 33.6322 16.4087 33.6331 16.3655 33.6612Z" fill="#FAFAFA"/>
<path d="M15.7373 25.6604L16.2738 15.7373L16.9176 25.6604L16.2738 26.7537L15.7373 25.6604Z" fill="#FAFAFA" stroke="#FAFAFA" stroke-width="0.5"/>
<path d="M15.5543 24.3936L22.8194 24.8407L15.5543 25.3772L14.7539 24.8407L15.5543 24.3936Z" fill="#FAFAFA" stroke="#FAFAFA" stroke-width="0.5"/>
<path d="M16.3278 25.9671C15.7846 25.9671 15.3442 25.5269 15.3442 24.9837C15.3442 24.4405 15.7846 24 16.3278 24C16.871 24 17.3114 24.4405 17.3114 24.9837C17.3114 25.5269 16.871 25.9671 16.3278 25.9671Z" fill="#FAFAFA"/>
<path fill-rule="evenodd" clip-rule="evenodd" d="M42.027 20.3281C41.2212 19.9085 40.281 19.6986 39.2068 19.6986C37.931 19.6986 36.8313 19.9756 35.9081 20.5295C35.2105 20.9356 34.6565 21.4614 34.2464 22.1071V14.3604H32.4585V24.5852H34.4102C34.5019 24.2008 34.6319 23.8476 34.8004 23.5259C35.1864 22.8042 35.7234 22.2585 36.4118 21.8893C37.1167 21.5031 37.9393 21.3101 38.8793 21.3101C40.1385 21.3101 41.1121 21.6711 41.8002 22.3929C42.334 22.9266 42.6656 23.6571 42.7954 24.5852H44.6141C44.5359 23.6516 44.3114 22.8536 43.9406 22.1915C43.4875 21.352 42.8494 20.731 42.027 20.3281ZM44.6382 24.9786H42.8374C42.851 25.1592 42.8579 25.3464 42.8579 25.5404V33.0441H44.6455V25.3641C44.6455 25.2334 44.643 25.1049 44.6382 24.9786ZM34.3316 24.9786H32.4585V33.0441H34.2464V26.0943C34.2464 25.6991 34.2749 25.3271 34.3316 24.9786ZM49.4747 24.9786H51.3706C51.2984 25.3846 51.2624 25.8237 51.2624 26.2959V33.0441H49.4747V24.9786ZM51.4545 24.5852H49.4747V19.8245H51.187V22.3736C51.5652 21.5726 52.1275 20.9493 52.874 20.5044C53.7469 19.9671 54.8296 19.6986 56.1221 19.6986V21.436H55.9208C55.8537 21.4193 55.7864 21.4109 55.7193 21.4109C54.326 21.4109 53.235 21.8389 52.4459 22.695C51.9747 23.1962 51.6443 23.8265 51.4545 24.5852ZM58.0541 24.9786C57.9693 25.4365 57.927 25.9176 57.927 26.4218C57.927 27.731 58.2206 28.8978 58.8082 29.9217C59.3957 30.929 60.193 31.7264 61.2004 32.3139C62.2242 32.8847 63.3743 33.17 64.65 33.17C65.9425 33.17 67.1008 32.8847 68.1249 32.3139C69.1487 31.7264 69.9461 30.929 70.5168 29.9217C71.1044 28.8978 71.3982 27.731 71.3982 26.4218C71.3982 25.9176 71.3557 25.4365 71.2709 24.9786H69.4256C69.532 25.4268 69.5851 25.908 69.5851 26.4218C69.5851 27.4456 69.367 28.3521 68.9305 29.1412C68.5109 29.9134 67.9319 30.5177 67.1931 30.9541C66.4544 31.3739 65.6068 31.5837 64.65 31.5837C63.7267 31.5837 62.8959 31.3739 62.1571 30.9541C61.4184 30.5177 60.8311 29.9134 60.3945 29.1412C59.958 28.3521 59.7399 27.4456 59.7399 26.4218C59.7399 25.908 59.793 25.4268 59.8994 24.9786H58.0541ZM60.0092 24.5852H58.1388C58.2859 23.9894 58.5088 23.4347 58.8082 22.9217C59.3957 21.9145 60.193 21.1254 61.2004 20.5547C62.2075 19.984 63.3573 19.6986 64.65 19.6986C65.9592 19.6986 67.1175 19.984 68.1249 20.5547C69.1487 21.1254 69.9461 21.9145 70.5168 22.9217C70.8162 23.4347 71.0391 23.9894 71.1862 24.5852H69.3158C69.2156 24.2736 69.0872 23.9793 68.9305 23.7022C68.5109 22.9301 67.9319 22.3341 67.1931 21.9145C66.4544 21.4779 65.6153 21.2598 64.675 21.2598C63.735 21.2598 62.8959 21.4779 62.1571 21.9145C61.4184 22.3341 60.8311 22.9301 60.3945 23.7022C60.2378 23.9793 60.1094 24.2736 60.0092 24.5852ZM75.048 24.9786V33.0441H76.8359V26.0943C76.8359 25.6991 76.8641 25.3271 76.9211 24.9786H75.048ZM76.9997 24.5852H75.048V19.8245H76.7603V22.2302C77.1768 21.5279 77.7561 20.961 78.4978 20.5295C79.4208 19.9756 80.5205 19.6986 81.7963 19.6986C82.8705 19.6986 83.8107 19.9085 84.6165 20.3281C85.4389 20.731 86.077 21.352 86.5301 22.1915C86.9009 22.8536 87.1254 23.6516 87.2038 24.5852H85.3849C85.2553 23.6571 84.9235 22.9266 84.3897 22.3929C83.7015 21.6711 82.728 21.3101 81.4691 21.3101C80.5288 21.3101 79.7064 21.5031 79.0013 21.8893C78.3131 22.2585 77.7759 22.8042 77.3899 23.5259C77.2214 23.8476 77.0914 24.2008 76.9997 24.5852ZM85.4269 24.9786C85.4405 25.1592 85.4474 25.3464 85.4474 25.5404V33.0441H87.2353V25.3641C87.2353 25.2334 87.2325 25.1049 87.2277 24.9786H85.4269ZM90.857 24.9786C90.7722 25.4365 90.7297 25.9176 90.7297 26.4218C90.7297 27.731 91.0233 28.8978 91.6109 29.9217C92.1986 30.929 92.9959 31.7264 94.0031 32.3139C95.0269 32.8847 96.177 33.17 97.4527 33.17C98.7454 33.17 99.9037 32.8847 100.928 32.3139C101.951 31.7264 102.749 30.929 103.32 29.9217C103.907 28.8978 104.201 27.731 104.201 26.4218C104.201 25.9176 104.158 25.4365 104.074 24.9786H102.229C102.335 25.4268 102.388 25.908 102.388 26.4218C102.388 27.4456 102.17 28.3521 101.733 29.1412C101.314 29.9134 100.735 30.5177 99.9958 30.9541C99.2573 31.3739 98.4094 31.5837 97.4527 31.5837C96.5294 31.5837 95.6986 31.3739 94.9598 30.9541C94.2211 30.5177 93.6338 29.9134 93.1972 29.1412C92.7609 28.3521 92.5426 27.4456 92.5426 26.4218C92.5426 25.908 92.5957 25.4268 92.7021 24.9786H90.857ZM102.119 24.5852C102.018 24.2736 101.89 23.9793 101.733 23.7022C101.314 22.9301 100.735 22.3341 99.9958 21.9145C99.2573 21.4779 98.4179 21.2598 97.4779 21.2598C96.5377 21.2598 95.6986 21.4779 94.9598 21.9145C94.2211 22.3341 93.6338 22.9301 93.1972 23.7022C93.0407 23.9793 92.9123 24.2736 92.8119 24.5852H90.9418C91.0886 23.9894 91.3115 23.4347 91.6109 22.9217C92.1986 21.9145 92.9959 21.1254 94.0031 20.5547C95.0102 19.984 96.1602 19.6986 97.4527 19.6986C98.7622 19.6986 99.9204 19.984 100.928 20.5547C101.951 21.1254 102.749 21.9145 103.32 22.9217C103.619 23.4347 103.842 23.9894 103.989 24.5852H102.119ZM106.772 24.9786C106.823 25.0888 106.88 25.192 106.944 25.2885C107.263 25.7419 107.675 26.1028 108.178 26.3714C108.682 26.6233 109.236 26.8161 109.84 26.9505C110.461 27.0849 111.082 27.2023 111.703 27.303C112.324 27.4038 112.887 27.5297 113.39 27.6807C113.894 27.8151 114.297 28.0249 114.599 28.3103C114.918 28.5789 115.078 28.9564 115.078 29.4433C115.078 30.0982 114.8 30.6269 114.246 31.0297C113.693 31.4159 112.786 31.6089 111.527 31.6089C110.604 31.6089 109.723 31.4663 108.883 31.1809C108.044 30.8787 107.356 30.5262 106.819 30.1232L106.013 31.5333C106.567 32.0032 107.33 32.398 108.304 32.7169C109.278 33.0191 110.31 33.17 111.401 33.17C112.559 33.17 113.542 33.0191 114.347 32.7169C115.17 32.398 115.791 31.9614 116.211 31.4074C116.647 30.8367 116.865 30.165 116.865 29.393C116.865 28.6713 116.706 28.092 116.387 27.6557C116.085 27.2023 115.673 26.8583 115.153 26.6233C114.649 26.3715 114.087 26.1784 113.466 26.044C112.862 25.8931 112.249 25.7671 111.628 25.6663C111.023 25.5656 110.461 25.4397 109.941 25.2885C109.679 25.2012 109.441 25.0978 109.229 24.9786H106.772ZM108.683 24.5852H106.628C106.537 24.261 106.491 23.891 106.491 23.4756C106.491 22.7539 106.693 22.1074 107.095 21.5368C107.498 20.9661 108.086 20.5211 108.858 20.2022C109.647 19.8664 110.604 19.6986 111.729 19.6986C112.585 19.6986 113.441 19.816 114.297 20.0511C115.153 20.2693 115.858 20.5632 116.412 20.9324L115.632 22.3677C115.044 21.9648 114.414 21.6794 113.743 21.5116C113.072 21.3269 112.4 21.2346 111.729 21.2346C110.537 21.2346 109.655 21.4445 109.085 21.8641C108.531 22.267 108.254 22.7873 108.254 23.4253C108.254 23.9152 108.397 24.3016 108.683 24.5852Z" fill="#FAFAFA"/>
</g>
</svg>
